<svg width="48" height="49" viewBox="0 0 48 49" fill="none" xmlns="http://www.w3.org/2000/svg">
<path d="M43.5 24.4945C43.5 13.5011 34.769 4.58826 24 4.58826C13.2309 4.58826 4.49998 13.5011 4.49998 24.4945C4.49998 35.4879 13.2309 44.4007 24 44.4007C34.769 44.4007 43.5 35.4879 43.5 24.4945ZM23.564 33.2379C23.4242 33.0963 23.313 32.9279 23.2369 32.7424C23.1607 32.5569 23.1211 32.358 23.1204 32.1568C23.1196 31.9557 23.1576 31.7564 23.2323 31.5703C23.307 31.3842 23.4168 31.2149 23.5556 31.0722L28.4606 26.0258H15.9375C15.5397 26.0258 15.1581 25.8644 14.8768 25.5773C14.5955 25.2901 14.4375 24.9006 14.4375 24.4945C14.4375 24.0884 14.5955 23.6989 14.8768 23.4117C15.1581 23.1246 15.5397 22.9633 15.9375 22.9633H28.4606L23.5556 17.9168C23.4169 17.7739 23.307 17.6045 23.2324 17.4183C23.1578 17.2321 23.1198 17.0327 23.1207 16.8315C23.1216 16.6303 23.1613 16.4312 23.2375 16.2457C23.3137 16.0602 23.425 15.8918 23.565 15.7501C23.705 15.6085 23.8709 15.4964 24.0533 15.4202C24.2357 15.344 24.4311 15.3053 24.6282 15.3062C25.0262 15.3079 25.4073 15.4711 25.6875 15.7597L33.1303 23.4159C33.4091 23.7027 33.5655 24.0904 33.5655 24.4945C33.5655 24.8986 33.4091 25.2863 33.1303 25.5731L25.6875 33.2293C25.5487 33.3724 25.3837 33.4861 25.2018 33.564C25.0199 33.6419 24.8247 33.6824 24.6275 33.6832C24.4303 33.684 24.2348 33.6451 24.0523 33.5687C23.8699 33.4923 23.7039 33.3799 23.564 33.2379Z" fill="#28CB8B"/>
</svg>
